<svg xmlns:xlink="http://www.w3.org/1999/xlink" xmlns="http://www.w3.org/2000/svg" width="140" height="20" viewBox="0 0 140 20" fill="none">
<g clip-path="url(#clip0_7911_8557)">
<path fill-rule="evenodd" clip-rule="evenodd" d="M114.372 1.36931C114.372 0.673439 114.781 0.307036 115.604 0.307036H117.381C118.239 0.309532 118.945 0.711878 119.52 1.33636L130.397 12.614C130.751 12.9794 131.208 13.0433 131.208 12.6245V1.20108C131.208 0.646485 131.499 0.317519 132.217 0.307036L133.969 0.309531C134.507 0.307035 134.974 0.538161 134.971 1.18062L134.974 18.5359C134.967 19.5383 134.889 19.7385 133.987 19.734H132.342C131.64 19.734 131.272 19.5977 130.789 19.097L119.192 7.01065C118.695 6.4825 118.177 6.4825 118.174 7.1604L118.177 18.8844C118.174 19.423 117.925 19.733 117.277 19.733H115.265C114.681 19.7365 114.371 19.4719 114.371 18.9278V1.36931H114.372ZM104.096 0.309531H106.864C107.038 0.311756 107.205 0.381662 107.327 0.504175C107.45 0.626689 107.519 0.791998 107.52 0.964467V19.0815C107.519 19.2538 107.45 19.4188 107.327 19.541C107.204 19.6632 107.038 19.7329 106.864 19.735H104.096C103.922 19.7337 103.755 19.6642 103.632 19.5419C103.509 19.4195 103.44 19.254 103.44 19.0815V0.964967C103.44 0.79226 103.509 0.626501 103.632 0.503819C103.754 0.381137 103.921 0.31148 104.096 0.310031V0.309531ZM73.8063 1.64386C73.8063 0.745322 74.2653 0.303043 75.1805 0.307036H77.5309C78.8073 0.309532 78.999 0.669945 79.7002 1.9314L84.841 11.3601C85.1139 11.8413 85.4428 11.8413 85.7213 11.3601L91.3105 1.63338C91.7212 0.89558 92.1601 0.309532 92.7458 0.307036H95.5412C96.3534 0.307036 96.7454 0.421349 96.752 1.51907L96.7464 18.6862C96.7394 19.5128 96.479 19.7345 95.7541 19.7345H93.7558C92.9991 19.7345 92.7468 19.3551 92.7468 18.6807V6.1126L85.8792 18.6812C85.407 19.5383 84.9913 19.5298 84.5171 18.6812L77.5344 5.93689L77.542 18.6812C77.5218 19.384 77.2252 19.735 76.6158 19.735H74.8929C74.2371 19.724 73.8063 19.4464 73.8063 18.6647V1.64237V1.64386ZM53.5258 4.55414C53.5258 3.79637 54.0303 3.45193 54.9383 3.44294H60.2415C62.4477 3.44294 64.677 4.30055 64.677 6.28832C64.6896 7.98556 63.214 8.97895 60.5059 8.96847L54.9565 8.97396C54.1231 8.98244 53.5248 8.61953 53.5263 7.86975V4.55463L53.5258 4.55414ZM49.3688 1.52356C49.3688 0.779269 49.8733 0.307035 50.7773 0.309531L60.9443 0.303042C65.4105 0.303042 68.9596 1.70826 68.9778 6.08016C68.9596 8.95748 67.6197 10.3956 64.6982 11.2972C63.9712 11.5228 63.8406 11.9646 64.3002 12.6335L68.777 18.9652C69.1639 19.5143 68.9616 19.735 68.3578 19.735H65.6275C64.8733 19.735 64.5822 19.6506 64.2078 19.1359L59.5862 12.9021C59.0585 12.1533 58.3336 11.8398 57.3337 11.8398L53.6125 11.8468L53.5308 18.6797C53.5273 19.3786 53.2281 19.7335 52.6323 19.7335H50.3525C49.6074 19.7335 49.3688 19.3306 49.3688 18.6742V1.52356ZM34.6442 6.17351C34.8163 5.78164 35.0508 5.77416 35.2461 6.17351L38.781 13.3798C39.0434 13.9039 38.8678 14.199 38.1519 14.2025H31.7076C31.1814 14.2025 30.9791 13.8665 31.196 13.4332L34.6442 6.17351ZM32.9663 1.88048C33.4385 0.932022 33.7437 0.305538 35.2516 0.316021C36.698 0.308034 36.9841 0.859138 37.4795 1.81608L46.1239 18.4965C46.6571 19.5308 46.3842 19.735 45.4388 19.735H42.8583C42.0577 19.735 41.862 19.6506 41.5673 19.0516L40.8479 17.5845C40.6038 17.0943 40.3939 16.9854 39.3491 16.9854H30.4277C29.7386 16.9929 29.4334 17.1467 29.2215 17.6044L28.5979 18.9108C28.2559 19.6311 28.041 19.7345 27.2671 19.7345H25.3127C24.618 19.7345 24.3703 19.439 24.7139 18.7466L32.9663 1.88198V1.88048ZM18.7543 4.946C19.4687 5.29992 19.9459 5.34535 20.2209 4.86014L21.1249 3.17587C21.4362 2.65123 21.2551 2.25837 20.8121 1.99779C16.7167 -0.257048 9.14984 -0.922466 4.73253 1.6868C-0.789616 5.02088 -1.48379 13.1008 2.6732 16.8327C6.97801 21.0049 14.7305 20.5007 20.745 18.4895C21.8443 18.0602 21.9604 17.6239 21.9604 16.0495V10.3587C21.9674 9.52856 21.4251 8.98444 20.5861 8.97396L12.6919 8.98444C12.1061 8.98444 11.8241 9.28395 11.8241 9.84704V11.0296C11.8277 11.5717 12.1495 11.8438 12.8023 11.8508L17.3801 11.8438C18.0657 11.8508 18.3548 12.1388 18.3548 12.6425V15.705C13.3754 17.582 8.03441 17.0329 5.84341 14.3118C2.99658 10.467 4.898 4.81372 8.83302 3.9646C12.3497 3.10832 15.6573 3.43545 18.7558 4.946H18.7543Z" fill="black"/>
<path d="M140 18.128C140 19.0266 139.287 19.7349 138.357 19.7349C137.437 19.7349 136.704 19.0281 136.704 18.128C136.704 17.247 137.437 16.5401 138.357 16.5401C139.286 16.5396 140 17.247 140 18.128ZM137.114 18.128C137.114 18.8344 137.643 19.396 138.367 19.396C139.073 19.396 139.59 18.8344 139.59 18.1375C139.59 17.4307 139.071 16.8596 138.357 16.8596C137.643 16.8596 137.113 17.4307 137.113 18.128H137.114ZM138.103 18.9607H137.73V17.3728C137.934 17.3368 138.14 17.3201 138.347 17.3228C138.649 17.3228 138.787 17.3728 138.904 17.4392C138.955 17.482 138.996 17.5356 139.023 17.5961C139.05 17.6566 139.063 17.7224 139.061 17.7886C139.061 17.9628 138.924 18.0986 138.728 18.1565V18.176C138.885 18.2339 138.973 18.3502 139.022 18.5628C139.072 18.8049 139.1 18.9018 139.139 18.9622H138.736C138.685 18.9038 138.657 18.7585 138.609 18.5748C138.579 18.4006 138.481 18.3252 138.276 18.3252H138.1L138.103 18.9607ZM138.112 18.0621H138.289C138.494 18.0621 138.66 17.9943 138.66 17.83C138.66 17.6848 138.553 17.5879 138.318 17.5879C138.249 17.5863 138.18 17.5929 138.112 17.6074V18.0621Z" fill="black"/>
</g>
<defs>
<clipPath id="clip0_7911_8557">
<rect width="140" height="20" fill="white"/>
</clipPath>
</defs>
</svg>