<svg id="Layer_1" data-name="Layer 1" xmlns="http://www.w3.org/2000/svg" viewBox="0 0 638 93.41"><defs><style>.cls-1{fill-rule:evenodd;}</style></defs><title>Samsung Logo Vector</title><path class="cls-1" d="M530.85,496.67a81.93,81.93,0,0,0-10.05-5.32s-11.88-5.51-14.24-8.13c0,0-4.62-4.36-1.91-9.43,0,0,1.13-3.31,6-3.31,0,0,6.37.35,6.37,5.58v7.39h22.83l0-10.88s1.76-17.81-26.89-18.6c0,0-22.53-1.48-29,10.66,0,0-2.54,2.7-2.54,12.13v6.81s-.25,7.86,3.76,12.92c0,0,2.27,3.32,7.86,7,0,0,11.35,6.11,18.16,9.61,0,0,6.88,3.93,6,10.17,0,0-.55,6.41-7.19,6.15,0,0-6.08-.27-6.08-6.56v-7.38H479.57v10.72s-.69,20.51,30.58,20.51c0,0,29.86.61,31.26-21.05v-8.72s1.05-13.28-10.56-20.26Z" transform="translate(-181 -453.3)"/><polygon class="cls-1" points="232.97 3.23 225.33 51.13 223.54 51.13 216.24 3.65 178.1 3.65 176.19 90.4 198.77 90.4 199.04 25.04 200.82 25.04 212.78 90.39 236.54 90.39 248.36 25.07 249.93 25.07 250.48 90.4 273.18 90.4 270.73 3.23 232.97 3.23 232.97 3.23"/><polygon class="cls-1" points="98.56 3.59 83.54 90.31 107.85 90.31 116.75 23.07 118.75 23.07 127.64 90.31 151.94 90.31 136.93 3.59 98.56 3.59 98.56 3.59"/><path class="cls-1" d="M789.61,495.48v12.79h6.23V522c0,6.7-5.74,6.83-5.74,6.83-7,0-6.71-6.38-6.71-6.38V475c0-4.89,6.19-5.15,6.19-5.15,5.94,0,6,5.83,6,5.83v7.22h22.89c.74-14.09-2.06-17.5-2.06-17.5-5.68-12.75-27.16-12.06-27.16-12.06-33,0-29.34,25.33-29.34,25.33v45.92c.71,23.75,33.23,21.34,33.78,21.31,14.47-1.6,18.83-6.19,18.83-6.19a14,14,0,0,0,5.06-7.12c1.15-2.41,1.44-10.09,1.44-10.09v-27Z" transform="translate(-181 -453.3)"/><polygon class="cls-1" points="532.75 56.29 531.75 56.29 508.52 3.25 480.74 3.25 480.74 90.42 503.35 90.42 502 37.38 503 37.38 527.07 90.42 554.01 90.42 554.01 3.24 531.12 3.24 532.75 56.29 532.75 56.29"/><path class="cls-1" d="M606.53,522s.33,7.16-6.3,7.16c0,0-7,.37-7-7l-.07-65.57H568.37v65s-2.54,24.62,32.2,24.62c0,0,30.2.36,30.2-23.49V456.6H606.53V522Z" transform="translate(-181 -453.3)"/><path class="cls-1" d="M232.27,496.67a80.72,80.72,0,0,0-10-5.32s-11.87-5.5-14.23-8.13c0,0-4.63-4.37-1.92-9.42,0,0,1.14-3.32,6-3.32,0,0,6.38.35,6.38,5.58v7.39h22.84l0-10.88S243,454.75,214.38,454a51.09,51.09,0,0,0-5.32,0s-17.35.93-23.55,10.45a2,2,0,0,0-.12.19s-2.54,2.7-2.54,12.13v6.81s-.26,7.86,3.76,12.92c0,0,2.27,3.32,7.86,7,0,0,11.34,6.11,18.16,9.61,0,0,6.88,3.92,6,10.17,0,0-.56,6.41-7.19,6.15,0,0-6.08-.27-6.08-6.56v-7.39H181v10.73s-.68,20.51,30.58,20.51c0,0,29.86.61,31.26-21.05v-8.72s1-13.28-10.57-20.26Z" transform="translate(-181 -453.3)"/></svg>